<?xml version="1.0" standalone="no"?>
<!DOCTYPE svg PUBLIC "-//W3C//DTD SVG 20010904//EN"
 "http://www.w3.org/TR/2001/REC-SVG-20010904/DTD/svg10.dtd">
<svg version="1.0" xmlns="http://www.w3.org/2000/svg"
 width="640.000000pt" height="640.000000pt" viewBox="0 0 640.000000 640.000000"
 preserveAspectRatio="xMidYMid meet">

<g transform="translate(0.000000,640.000000) scale(0.100000,-0.100000)"
fill="#000000" stroke="none">
<path d="M3245 6103 c-38 -54 -70 -100 -71 -102 -2 -2 -49 6 -106 18 -57 12
-106 21 -110 21 -22 0 -1 -44 58 -118 l65 -83 -55 -96 c-55 -94 -66 -123 -46
-123 6 0 43 9 82 20 39 11 73 18 75 16 7 -6 -54 -208 -93 -315 -81 -217 -181
-376 -415 -663 -152 -186 -190 -223 -281 -273 -51 -28 -74 -47 -76 -62 -3 -23
25 -38 56 -29 9 3 68 13 130 21 117 17 215 46 315 96 31 16 57 27 57 23 0 -13
-27 -55 -101 -155 l-79 -106 -67 -5 c-81 -6 -136 -31 -185 -86 -62 -69 -78
-148 -52 -262 5 -23 -7 -37 -104 -123 -195 -172 -212 -206 -112 -220 54 -7
254 -1 298 10 20 5 22 1 22 -29 0 -29 -19 -56 -136 -194 -76 -87 -174 -197
-219 -244 -45 -47 -177 -185 -293 -307 -249 -262 -263 -292 -124 -259 37 9
126 25 197 36 72 11 154 27 184 36 56 16 185 77 253 120 21 13 40 24 43 24 4
0 -12 -21 -34 -47 -21 -27 -102 -145 -178 -263 -205 -316 -272 -408 -292 -396
-10 7 -100 -21 -117 -35 -17 -14 -18 -43 -2 -69 11 -17 7 -25 -34 -67 -47 -48
-69 -88 -61 -110 8 -22 114 -15 209 13 67 19 100 24 136 19 27 -4 50 -11 54
-16 3 -5 19 -9 35 -9 17 0 29 -4 27 -9 -7 -20 -227 -271 -308 -352 -47 -47
-167 -146 -265 -220 -100 -74 -182 -142 -183 -153 -6 -31 11 -39 58 -26 32 9
64 9 126 0 98 -13 237 4 569 70 357 70 519 123 743 241 125 66 121 67 102 -32
-22 -113 -100 -571 -100 -585 0 -12 57 -14 375 -14 365 0 375 1 375 20 0 10
-25 162 -55 336 -31 175 -54 322 -52 327 3 10 44 -22 85 -67 33 -35 80 -56
126 -56 19 0 74 -15 123 -34 166 -65 539 -149 863 -196 125 -19 156 -20 224
-10 60 9 90 9 128 0 58 -14 77 -5 58 29 -6 12 -82 74 -168 139 -169 126 -308
245 -343 293 l-21 30 23 16 c51 35 113 109 141 169 20 44 36 64 48 64 25 0 32
27 16 63 -7 18 -18 67 -24 110 -24 186 -151 328 -331 369 l-55 13 -94 145
c-51 80 -102 157 -113 172 -10 15 -19 34 -19 43 0 21 42 14 117 -20 76 -34
143 -51 288 -75 72 -11 160 -28 197 -36 127 -30 120 2 -37 169 -78 82 -124
138 -121 147 3 8 12 35 21 60 47 127 -32 287 -168 337 -48 18 -121 15 -177 -6
l-50 -19 -72 87 c-40 47 -112 133 -162 190 -49 58 -81 101 -70 97 76 -32 118
-38 266 -39 109 -2 161 2 169 10 25 25 -3 64 -129 179 -70 64 -142 135 -161
157 l-35 40 30 20 c53 38 101 95 130 154 26 52 29 68 29 158 0 87 -3 107 -27
157 -51 110 -143 185 -262 215 l-64 15 -89 112 c-212 263 -290 386 -362 569
-36 90 -92 260 -87 264 2 2 9 -3 16 -12 7 -8 19 -15 26 -15 11 0 14 21 14 94
0 151 -3 145 111 202 69 33 99 53 97 64 -2 10 -39 25 -111 44 -88 24 -108 33
-112 50 -2 12 -10 66 -17 120 -7 55 -18 101 -23 103 -6 2 -42 -41 -80 -94z
m25 -64 c-5 -19 -14 -54 -20 -78 l-12 -44 -18 28 -18 28 35 54 c20 29 37 52
39 50 2 -2 -1 -19 -6 -38z m39 -108 c-13 -11 -26 -18 -28 -16 -2 2 5 37 15 77
l18 73 9 -57 c9 -54 8 -59 -14 -77z m-169 33 c24 -7 49 -30 50 -47 0 -8 -86
38 -105 56 -10 9 -3 8 55 -9z m-23 -56 c47 -26 53 -33 37 -39 -33 -13 -40 -10
-73 31 -17 22 -29 40 -26 40 3 0 31 -14 62 -32z m296 -5 c21 -4 25 -8 15 -14
-15 -10 -108 -12 -108 -3 0 14 36 33 50 28 8 -3 28 -8 43 -11z m10 -79 c-52
-25 -53 -25 -83 -8 -16 10 -30 22 -30 26 0 4 37 8 83 8 l82 -1 -52 -25z m-263
-15 c-19 -16 -48 -39 -64 -51 l-29 -22 26 45 c20 34 34 45 59 50 18 4 35 7 38
7 3 1 -11 -12 -30 -29z m168 -29 c20 -17 23 -26 20 -82 l-3 -63 -24 70 c-13
39 -26 76 -29 83 -6 18 9 14 36 -8z m-162 -36 c-3 -9 -6 -21 -6 -29 0 -7 -12
-15 -27 -18 -16 -3 -37 -9 -48 -12 -11 -4 0 11 25 33 48 44 66 52 56 26z m71
-46 c-3 -8 -6 -5 -6 6 -1 11 2 17 5 13 3 -3 4 -12 1 -19z m69 -76 c-6 -6 -26
43 -25 61 0 7 7 -3 15 -22 8 -18 13 -36 10 -39z m-16 -95 c30 -108 105 -306
145 -387 50 -99 161 -262 277 -407 l105 -131 -64 -17 c-199 -54 -327 -258
-278 -444 30 -116 88 -198 169 -242 44 -23 58 -39 36 -39 -27 0 -135 53 -206
101 -120 81 -139 89 -218 89 -59 0 -81 -5 -135 -32 -65 -32 -154 -113 -251
-226 -34 -40 -51 -52 -72 -52 -34 0 -35 4 -3 42 25 30 55 114 55 154 0 37 -30
116 -57 153 -14 18 -45 45 -68 60 l-42 27 83 114 c89 123 110 161 100 185 -9
24 -51 18 -124 -19 -95 -47 -181 -73 -301 -91 -136 -20 -136 -20 -66 16 73 37
109 70 234 219 333 397 428 564 541 955 18 61 34 114 37 118 3 5 22 -7 42 -27
30 -29 42 -54 61 -119z m617 -1026 c61 -67 62 -69 50 -100 -10 -28 -15 -31
-42 -26 -84 17 -285 99 -285 116 0 12 92 57 137 68 68 16 75 13 140 -58z m91
28 c69 -34 134 -100 166 -169 17 -36 21 -64 21 -145 0 -89 -3 -105 -27 -150
-41 -77 -138 -169 -157 -149 -17 18 -208 261 -267 339 -74 98 -138 194 -133
199 2 2 36 -11 74 -30 108 -51 181 -73 300 -89 61 -9 118 -18 128 -21 9 -3 26
-2 38 1 33 11 20 46 -26 71 -22 13 -45 27 -51 32 -6 6 -24 17 -40 25 -16 9
-51 38 -79 66 -40 42 -46 51 -29 51 12 0 48 -14 82 -31z m-343 -224 c44 -60
133 -177 198 -260 l119 -150 -34 -13 c-20 -9 -60 -13 -108 -10 -260 11 -415
282 -292 511 14 26 28 44 32 40 4 -5 42 -57 85 -118z m386 62 c-6 -6 -21 -7
-39 -1 -26 8 -29 12 -21 32 l9 23 31 -22 c21 -15 27 -25 20 -32z m69 -13 c0
-2 -9 -4 -20 -4 -11 0 -20 4 -20 9 0 5 9 7 20 4 11 -3 20 -7 20 -9z m-1490
-191 c0 -7 -102 -143 -108 -143 -2 0 -1 9 3 19 6 20 -17 51 -39 51 -21 0 -38
-26 -34 -52 2 -17 11 -24 31 -26 15 -2 27 -5 27 -8 0 -2 -28 -38 -62 -79 -38
-47 -65 -72 -71 -66 -15 15 -11 123 7 166 28 65 83 113 156 136 32 9 90 11 90
2z m101 -36 c59 -40 93 -99 97 -173 6 -84 -15 -140 -72 -192 -94 -87 -236 -82
-324 10 l-33 35 137 171 c76 95 143 172 149 172 7 0 27 -10 46 -23z m-224 -73
c3 -8 1 -20 -6 -27 -14 -14 -47 15 -37 32 10 16 36 13 43 -5z m866 -55 c23
-12 75 -45 117 -74 41 -28 95 -59 120 -68 50 -19 115 -22 125 -8 3 6 18 6 38
0 46 -13 127 -11 179 4 l44 14 167 -161 c92 -89 167 -164 167 -167 0 -12 -102
-16 -209 -9 -89 6 -121 13 -194 43 -79 32 -117 38 -117 18 0 -4 21 -27 46 -51
37 -37 137 -151 332 -382 13 -15 11 -21 -13 -50 -82 -96 -87 -238 -13 -338 31
-43 101 -87 149 -95 41 -7 47 -13 27 -33 -24 -24 -73 -12 -173 44 -167 92
-200 84 -105 -26 33 -39 58 -75 55 -81 -4 -5 -35 -9 -69 -9 -62 0 -65 1 -132
56 -113 92 -151 154 -203 328 -12 38 -21 74 -21 79 0 5 -9 22 -21 38 -20 28
-20 31 -3 74 25 65 16 183 -19 251 -76 149 -261 212 -413 140 -136 -65 -213
-232 -171 -369 12 -39 13 -48 2 -55 -7 -4 -24 -27 -37 -52 -19 -37 -29 -46
-54 -48 -43 -4 -130 43 -238 128 -11 8 -38 35 -60 60 -23 25 -69 73 -103 106
-70 69 -90 107 -71 133 6 9 41 47 77 84 51 52 63 70 52 76 -15 9 -50 -1 -135
-39 -35 -16 -78 -24 -160 -29 -121 -8 -216 -4 -216 9 0 7 112 114 227 217 l36
31 34 -33 c55 -54 98 -70 183 -70 57 0 85 5 116 22 27 14 46 18 55 12 39 -24
107 13 163 90 53 72 126 139 191 176 53 30 68 34 133 35 55 0 83 -5 115 -21z
m-833 -463 c0 -3 -4 -8 -10 -11 -5 -3 -10 -1 -10 4 0 6 5 11 10 11 6 0 10 -2
10 -4z m969 -31 c199 -109 199 -401 0 -509 -106 -59 -243 -44 -333 35 -133
118 -133 320 0 438 63 55 112 71 204 68 61 -3 86 -9 129 -32z m-1032 -129 c4
-8 53 -62 108 -121 176 -187 297 -269 391 -263 44 3 51 6 66 37 9 19 24 41 33
50 14 14 17 13 32 -9 56 -82 151 -132 252 -134 96 -1 160 24 227 90 l55 53 10
-27 c6 -15 24 -70 40 -122 53 -174 105 -251 238 -351 53 -39 57 -40 120 -37
37 2 72 6 80 8 9 3 48 -47 112 -145 54 -82 98 -153 98 -156 1 -3 -24 -9 -54
-12 -199 -20 -365 -212 -365 -421 0 -150 58 -258 196 -364 l29 -22 -30 15
c-16 8 -37 20 -45 26 -12 8 -31 8 -73 -1 -51 -10 -62 -17 -100 -64 -23 -29
-54 -78 -67 -109 -38 -89 -49 -89 -194 -14 -181 95 -415 237 -453 276 -23 24
-37 31 -44 24 -7 -7 -1 -21 22 -47 17 -20 30 -38 28 -39 -51 -35 -236 -137
-249 -137 -39 0 -157 43 -182 67 -31 30 -118 168 -146 233 -10 25 -22 65 -26
90 -4 25 -13 63 -20 85 -12 34 -12 44 1 69 25 48 29 139 8 192 -22 58 -75 118
-129 147 -58 30 -165 30 -223 -1 -125 -66 -176 -207 -121 -334 25 -58 29 -53
-83 -98 l-76 -31 -67 36 c-36 20 -66 39 -66 42 0 2 34 41 75 86 69 75 139 174
370 529 44 67 106 153 138 189 31 37 57 72 57 78 0 25 -51 8 -165 -55 -164
-91 -212 -107 -420 -143 -99 -17 -191 -34 -205 -38 -16 -4 80 103 280 314 168
176 352 377 410 446 58 69 108 126 112 126 4 1 11 -5 15 -13z m2014 -233 c93
-50 143 -156 120 -258 -23 -102 -20 -103 -181 67 -80 83 -153 162 -163 174
l-18 23 48 15 c64 21 132 13 194 -21z m-162 -135 c64 -67 100 -112 95 -119 -4
-8 -3 -9 5 -5 6 4 18 0 27 -8 8 -9 13 -16 10 -16 -3 0 16 -20 42 -45 l47 -46
-33 -28 c-44 -38 -109 -55 -178 -48 -151 16 -251 175 -200 320 15 41 64 110
75 105 4 -2 53 -51 110 -110z m366 -385 c86 -91 113 -125 95 -120 -14 4 -92
19 -175 33 -141 23 -260 50 -278 61 -4 2 4 14 18 25 14 10 25 26 25 34 0 9 10
14 28 14 32 0 121 40 141 63 7 10 16 17 20 17 3 0 60 -57 126 -127z m-571 46
c41 -24 41 -25 22 -32 -7 -3 -26 8 -42 24 -33 34 -28 36 20 8z m-1684 -449
c67 -35 116 -105 126 -182 7 -51 -11 -127 -32 -135 -7 -3 -14 -13 -14 -22 0
-41 -105 -100 -176 -101 -51 0 -104 10 -104 20 0 4 36 48 80 96 44 49 79 93
77 99 -8 23 -37 11 -137 -54 -104 -69 -105 -69 -122 -49 -37 42 -48 134 -24
200 47 130 202 191 326 128z m1983 -95 c47 -69 56 -89 51 -114 -8 -36 23 -71
64 -71 40 -1 202 -155 202 -194 0 -27 -1 -28 -42 -21 -138 23 -335 106 -493
209 -65 42 -124 76 -131 76 -31 0 -20 -24 49 -104 41 -46 125 -147 188 -223
62 -76 130 -157 151 -180 21 -24 38 -47 38 -52 0 -17 -101 -33 -180 -29 -105
6 -187 46 -262 127 -167 180 -133 454 73 597 47 32 141 63 195 63 40 1 42 0
97 -84z m95 45 c113 -54 197 -164 220 -290 6 -30 9 -57 7 -58 -2 -2 -35 27
-74 64 -65 61 -71 70 -71 107 0 50 -23 77 -65 77 -28 0 -37 8 -71 58 -21 31
-40 60 -42 65 -8 16 36 6 96 -23z m46 -136 c9 -8 16 -23 16 -31 0 -13 -5 -12
-25 7 -14 13 -25 27 -25 32 0 13 17 9 34 -8z m-27 -70 c-10 -10 -37 16 -37 34
0 13 4 12 22 -5 12 -13 19 -25 15 -29z m-2719 -40 c-21 -21 -41 -34 -47 -29
-21 13 -7 38 29 51 55 20 57 17 18 -22z m431 -54 c-45 -54 -49 -56 -66 -39 -9
9 2 21 45 50 31 20 58 38 60 38 2 1 -16 -21 -39 -49z m2021 -18 c36 -21 101
-53 145 -71 44 -18 85 -36 90 -39 6 -4 15 -7 20 -8 24 -5 190 -49 194 -51 13
-9 -43 -97 -96 -150 -67 -67 -83 -74 -104 -44 -8 10 -59 72 -113 137 -55 66
-134 160 -175 209 -42 50 -64 82 -51 73 14 -10 54 -35 90 -56z m-2475 -22 c3
-5 28 -20 56 -31 27 -12 49 -25 49 -29 0 -10 -107 -39 -170 -47 -27 -3 -50 -2
-50 2 0 10 92 112 102 114 4 1 10 -3 13 -9z m760 -62 c24 -105 36 -136 75
-202 19 -32 43 -72 53 -90 35 -59 78 -95 136 -111 106 -32 110 -26 -59 -108
-225 -110 -445 -171 -898 -247 -156 -26 -204 -31 -323 -28 -76 2 -139 4 -139
5 0 1 62 46 138 101 75 55 171 129 213 165 74 63 226 230 357 390 34 42 69 77
78 77 8 0 34 9 56 20 26 13 62 20 97 20 59 0 144 32 170 63 7 10 17 17 21 17
4 0 15 -33 25 -72z m-382 47 c18 -13 18 -15 -10 -49 -22 -28 -35 -36 -61 -36
-18 0 -40 4 -50 9 -9 5 -26 12 -37 16 -16 5 -7 12 42 34 35 15 66 31 70 34 10
11 26 8 46 -8z m57 -50 c-7 -8 -16 -15 -21 -15 -5 0 -6 7 -3 15 4 8 13 15 21
15 13 0 13 -3 3 -15z m1143 -373 c42 -24 77 -48 77 -52 0 -4 25 -151 55 -326
30 -176 55 -325 55 -331 0 -10 -74 -13 -336 -13 l-337 0 6 33 c3 17 26 154 51
302 60 352 54 325 80 325 31 0 68 28 62 48 -4 13 13 28 67 59 l72 41 35 -20
c19 -11 70 -41 113 -66z m702 48 c4 -6 35 -24 69 -40 57 -27 72 -30 169 -30
59 0 107 4 107 9 0 5 24 17 54 25 l55 16 94 -93 c51 -51 168 -148 260 -216 92
-68 167 -124 167 -125 0 0 -64 -2 -143 -4 -126 -3 -165 1 -347 33 -268 46
-496 98 -629 141 -127 42 -143 50 -119 64 9 6 28 36 43 67 30 65 88 141 119
153 30 12 94 12 101 0z m150 -43 c6 -6 0 -6 -15 -2 -14 4 -32 14 -40 22 -13
13 -11 13 15 2 17 -7 35 -17 40 -22z m-575 -157 c13 -8 13 -10 -2 -10 -9 0
-20 5 -23 10 -8 13 5 13 25 0z"/>
<path d="M3919 4153 c-13 -16 -12 -17 4 -4 16 13 21 21 13 21 -2 0 -10 -8 -17
-17z"/>
<path d="M3910 4116 c0 -2 8 -10 18 -17 15 -13 16 -12 3 4 -13 16 -21 21 -21
13z"/>
<path d="M2627 4033 c-4 -3 -7 -11 -7 -17 0 -6 5 -5 12 2 6 6 9 14 7 17 -3 3
-9 2 -12 -2z"/>
<path d="M2620 3990 c0 -5 5 -10 11 -10 5 0 7 5 4 10 -3 6 -8 10 -11 10 -2 0
-4 -4 -4 -10z"/>
<path d="M2655 3990 c-3 -5 -1 -10 4 -10 6 0 11 5 11 10 0 6 -2 10 -4 10 -3 0
-8 -4 -11 -10z"/>
<path d="M3466 3424 c-21 -20 -20 -48 0 -69 23 -22 56 -15 73 17 14 24 14 28
-3 47 -23 25 -49 27 -70 5z m58 -20 c7 -19 -10 -44 -31 -44 -17 0 -27 24 -19
45 7 20 42 19 50 -1z"/>
<path d="M4452 3078 c-29 -29 -3 -72 40 -66 19 2 23 9 23 38 0 30 -4 35 -25
38 -14 2 -31 -3 -38 -10z m51 -22 c7 -18 -1 -26 -25 -26 -11 0 -18 7 -18 20 0
23 35 28 43 6z"/>
<path d="M4410 2860 c0 -5 5 -10 11 -10 5 0 7 5 4 10 -3 6 -8 10 -11 10 -2 0
-4 -4 -4 -10z"/>
<path d="M2273 2115 c-3 -9 -3 -19 1 -22 3 -4 6 1 6 10 0 8 8 18 18 20 16 4
16 5 -1 6 -10 0 -20 -6 -24 -14z"/>
<path d="M2320 2107 c0 -9 -8 -21 -17 -26 -16 -9 -17 -10 -1 -11 17 0 35 36
24 47 -3 4 -6 -1 -6 -10z"/>
<path d="M2140 2020 c-17 -17 -18 -24 -10 -41 17 -30 39 -34 62 -11 23 23 19
45 -11 62 -17 8 -24 7 -41 -10z m48 -23 c4 -21 -25 -34 -40 -19 -8 8 -8 16 2
27 16 19 34 15 38 -8z"/>
<path d="M4420 1703 c0 -6 8 -17 18 -24 16 -13 16 -13 2 6 -8 11 -16 22 -17
24 -2 2 -3 0 -3 -6z"/>
<path d="M3750 420 c0 -21 -17 -25 -83 -20 -64 4 -91 -70 -40 -110 18 -14 35
-19 51 -15 15 4 21 2 17 -5 -8 -13 -65 -13 -65 0 0 6 -4 10 -10 10 -18 0 -10
-29 11 -40 30 -16 74 -3 88 26 6 14 11 43 11 64 0 22 5 40 10 40 6 0 10 -18
10 -39 0 -42 6 -50 45 -57 24 -4 25 -2 25 45 0 34 4 51 15 55 29 11 15 26 -25
26 -33 0 -40 3 -40 20 0 11 -4 20 -10 20 -5 0 -10 -9 -10 -20z m-60 -55 c7 -9
10 -25 6 -41 -5 -20 -12 -25 -34 -22 -21 2 -28 9 -30 32 -5 42 32 62 58 31z
m100 -30 c0 -19 -4 -35 -10 -35 -5 0 -10 16 -10 35 0 19 5 35 10 35 6 0 10
-16 10 -35z"/>
<path d="M3884 400 c-10 -4 -26 -20 -34 -35 -12 -23 -12 -30 0 -52 8 -14 22
-31 31 -36 20 -13 68 -1 76 19 8 21 -4 29 -21 15 -18 -15 -58 -11 -64 7 -2 8
11 12 45 12 43 0 52 -4 71 -30 27 -36 63 -39 92 -8 24 27 18 36 -14 19 -27
-15 -57 -12 -64 7 -2 8 11 12 47 12 43 0 51 3 51 18 0 49 -85 71 -114 30 l-16
-22 -15 21 c-17 24 -43 33 -71 23z m40 -26 c28 -11 17 -24 -19 -24 -34 0 -47
13 -22 23 18 8 23 8 41 1z m130 0 c28 -11 17 -24 -19 -24 -34 0 -47 13 -22 23
18 8 23 8 41 1z"/>
<path d="M3360 318 c0 -45 4 -78 10 -78 6 0 10 8 10 18 0 15 6 18 28 14 53 -7
88 57 58 103 -14 21 -24 25 -61 23 l-45 -1 0 -79z m80 48 c6 -8 10 -25 8 -38
-2 -18 -9 -23 -33 -23 -24 0 -31 5 -33 23 -4 25 13 52 33 52 7 0 18 -7 25 -14z"/>
<path d="M3489 395 c-5 -43 1 -120 10 -123 7 -2 11 12 11 41 0 27 6 49 15 57
25 20 45 -5 45 -56 0 -24 5 -44 10 -44 14 0 12 104 -2 118 -11 11 -87 17 -89
7z"/>
<path d="M2348 330 l-15 -60 43 0 c48 0 64 17 64 67 0 36 -16 53 -51 53 -24 0
-28 -5 -41 -60z m68 25 c12 -30 -5 -65 -31 -65 -15 0 -23 5 -21 13 3 6 7 24
10 40 7 29 33 37 42 12z"/>
<path d="M2660 380 c0 -5 5 -10 10 -10 6 0 10 5 10 10 0 6 -4 10 -10 10 -5 0
-10 -4 -10 -10z"/>
<path d="M3045 369 c-4 -12 -12 -18 -21 -15 -18 7 -54 -28 -54 -53 0 -26 21
-40 51 -34 22 4 28 13 37 55 7 27 12 54 12 59 0 17 -19 9 -25 -12z m-15 -53
c0 -14 -5 -28 -11 -32 -17 -10 -32 12 -24 35 9 29 35 27 35 -3z"/>
<path d="M3136 378 c-8 -27 -25 -102 -23 -104 1 -1 14 -4 29 -8 34 -8 58 15
58 55 0 28 -8 34 -38 30 -10 -2 -12 4 -7 18 4 13 2 21 -5 21 -6 0 -12 -6 -14
-12z m44 -55 c0 -26 -16 -47 -29 -39 -14 9 -14 29 1 44 17 17 28 15 28 -5z"/>
<path d="M2477 342 c-34 -37 -6 -93 37 -76 23 9 20 27 -3 19 -11 -3 -22 -1
-26 5 -4 6 6 10 24 10 24 0 31 4 31 20 0 10 -9 24 -19 30 -25 13 -25 13 -44
-8z m38 -12 c3 -5 -3 -10 -15 -10 -12 0 -18 5 -15 10 3 6 10 10 15 10 5 0 12
-4 15 -10z"/>
<path d="M2573 353 c-20 -8 -15 -41 7 -48 29 -9 25 -28 -5 -21 -27 7 -35 -8
-9 -18 24 -9 31 -8 49 10 12 12 13 19 4 30 -6 8 -18 14 -25 14 -8 0 -14 5 -14
10 0 6 11 8 25 4 27 -7 35 10 9 20 -18 7 -23 7 -41 -1z"/>
<path d="M2694 336 c-20 -32 -15 -60 14 -64 12 -2 22 -8 22 -14 0 -6 -11 -8
-25 -6 -14 3 -25 2 -25 -3 0 -14 21 -21 45 -15 19 5 26 16 34 57 6 29 10 53 9
54 -2 1 -15 5 -30 9 -22 5 -31 1 -44 -18z m46 -26 c0 -23 -29 -35 -36 -15 -7
18 14 47 27 39 5 -3 9 -13 9 -24z"/>
<path d="M2819 352 c-21 -2 -28 -10 -33 -34 -8 -40 -8 -48 3 -48 4 0 12 14 17
32 5 17 16 34 23 36 11 4 13 -3 8 -32 -8 -47 14 -45 24 2 7 37 -4 49 -42 44z"/>
<path d="M2896 344 c-34 -34 -5 -94 38 -78 23 9 20 27 -3 19 -11 -3 -22 -1
-26 5 -4 6 6 10 24 10 24 0 31 4 31 20 0 10 -9 24 -19 30 -25 13 -27 13 -45
-6z m39 -14 c3 -5 -3 -10 -15 -10 -12 0 -18 5 -15 10 3 6 10 10 15 10 5 0 12
-4 15 -10z"/>
<path d="M2650 333 c0 -10 -3 -28 -6 -40 -4 -13 -2 -23 4 -23 5 0 14 18 20 40
8 32 7 40 -4 40 -8 0 -14 -8 -14 -17z"/>
<path d="M3226 304 c5 -37 3 -47 -12 -59 -15 -11 -16 -14 -4 -15 23 0 34 11
63 64 30 55 31 56 17 56 -6 0 -16 -11 -22 -25 -10 -23 -30 -35 -27 -17 4 21
-2 42 -12 42 -7 0 -8 -16 -3 -46z"/>
</g>
</svg>
